ffmpeg started on 2025-06-27 at 10:18:25
Report written to "D:\Convert\FFMetrics\reports\psnr_report-6.txt"
Log level: 32
Command line:
ffmpeg -hide_banner -nostdin -i "G:\\\xc0\xed\xe8\xec\xe5\\[\xd2\xee\xef-4]\\\xd2\xee\xea\xe8\xe9\xf1\xea\xe8\xe9 \xc3\xf3\xeb\xfc\\\xd2\xc2-4\\Tokyo_Ghoul_Re_[12]_[AniLibria_TV]_[HDTVRip_720p]_HEVC.mkv" -i "G:\\\xc0\xed\xe8\xec\xe5\\[\xd2\xee\xef-4]\\\xd2\xee\xea\xe8\xe9\xf1\xea\xe8\xe9 \xc3\xf3\xeb\xfc\\\xd2\xc2-4\\Tokyo_Ghoul_Re_[12]_[AniLibria_TV]_[HDTVRip_720p].mkv" -lavfi "[0:v]settb=AVTB,setpts=PTS-STARTPTS,format=pix_fmts=yuv420p10,fps=24000/1001,scale=1280:720:flags=bicubic[main];[1:v]settb=AVTB,setpts=PTS-STARTPTS,format=pix_fmts=yuv420p,fps=24000/1001,scale=1280:720:flags=bicubic[ref];[main][ref]psnr=eof_action=endall:stats_file='D\\:/Convert/FFMetrics/logs/psnr_logfile-6.txt'" -f null -
Input #0, matroska,webm, from 'G:\Аниме\[Топ-4]\Токийский Гуль\ТВ-4\Tokyo_Ghoul_Re_[12]_[AniLibria_TV]_[HDTVRip_720p]_HEVC.mkv':
  Metadata:
    ENCODER         : Lavf61.7.100
  Duration: 00:24:30.12, start: -0.021000, bitrate: 863 kb/s
  Stream #0:0(jpn): Video: hevc (Main 10), yuv420p10le(tv, bt709, progressive), 1280x720 [SAR 1:1 DAR 16:9], 23.98 fps, 23.98 tbr, 1k tbn (default)
      Metadata:
        ENCODER         : Lavc61.19.100 libx265
        BPS             : 526923
        DURATION        : 00:24:30.010708333
        NUMBER_OF_FRAMES: 35245
        NUMBER_OF_BYTES : 96822792
        _STATISTICS_WRITING_APP: mkvpropedit v66.0.0 ('Josie') 64-bit
        _STATISTICS_WRITING_DATE_UTC: 2025-06-26 14:56:57
        _STATISTICS_TAGS: BPS DURATION NUMBER_OF_FRAMES NUMBER_OF_BYTES
  Stream #0:1(rus): Audio: aac (LC), 48000 Hz, stereo, fltp (default) (forced)
      Metadata:
        title           : Lupin, Silv, December & MyAska
        ENCODER         : Lavc61.19.100 aac
        BPS             : 193692
        DURATION        : 00:24:30.101000000
        NUMBER_OF_FRAMES: 68912
        NUMBER_OF_BYTES : 35593397
        _STATISTICS_WRITING_APP: mkvpropedit v66.0.0 ('Josie') 64-bit
        _STATISTICS_WRITING_DATE_UTC: 2025-06-26 14:56:57
        _STATISTICS_TAGS: BPS DURATION NUMBER_OF_FRAMES NUMBER_OF_BYTES
  Stream #0:2(rus): Subtitle: ass (ssa) (default) (forced)
      Metadata:
        title           : Надписи
        BPS             : 11086
        DURATION        : 00:13:58.180000000
        NUMBER_OF_FRAMES: 2547
        NUMBER_OF_BYTES : 1161571
        _STATISTICS_WRITING_APP: mkvpropedit v66.0.0 ('Josie') 64-bit
        _STATISTICS_WRITING_DATE_UTC: 2025-06-26 14:56:57
        _STATISTICS_TAGS: BPS DURATION NUMBER_OF_FRAMES NUMBER_OF_BYTES
  Stream #0:3(rus): Subtitle: ass (ssa)
      Metadata:
        title           : Субтитры
        BPS             : 6495
        DURATION        : 00:24:12.530000000
        NUMBER_OF_FRAMES: 2824
        NUMBER_OF_BYTES : 1179377
        _STATISTICS_WRITING_APP: mkvpropedit v66.0.0 ('Josie') 64-bit
        _STATISTICS_WRITING_DATE_UTC: 2025-06-26 14:56:57
        _STATISTICS_TAGS: BPS DURATION NUMBER_OF_FRAMES NUMBER_OF_BYTES
Input #1, matroska,webm, from 'G:\Аниме\[Топ-4]\Токийский Гуль\ТВ-4\Tokyo_Ghoul_Re_[12]_[AniLibria_TV]_[HDTVRip_720p].mkv':
  Metadata:
    encoder         : libebml v1.4.2 + libmatroska v1.6.4
    creation_time   : 2024-12-27T09:47:30.000000Z
  Duration: 00:24:30.10, start: 0.000000, bitrate: 2398 kb/s
  Stream #1:0(jpn): Video: h264 (Main), yuv420p(tv, bt709, progressive), 1280x720, SAR 1:1 DAR 16:9, 23.98 fps, 23.98 tbr, 1k tbn (default)
      Metadata:
        BPS             : 2055553
        DURATION        : 00:24:30.011000000
        NUMBER_OF_FRAMES: 35245
        NUMBER_OF_BYTES : 377710805
        _STATISTICS_WRITING_APP: mkvmerge v66.0.0 ('Josie') 64-bit
        _STATISTICS_WRITING_DATE_UTC: 2024-12-27 09:47:30
        _STATISTICS_TAGS: BPS DURATION NUMBER_OF_FRAMES NUMBER_OF_BYTES
  Stream #1:1(rus): Audio: aac (LC), 48000 Hz, stereo, fltp (default) (forced)
      Metadata:
        title           : Lupin, Silv, December & MyAska
        BPS             : 192091
        DURATION        : 00:24:30.101000000
        NUMBER_OF_FRAMES: 68911
        NUMBER_OF_BYTES : 35299182
        _STATISTICS_WRITING_APP: mkvmerge v66.0.0 ('Josie') 64-bit
        _STATISTICS_WRITING_DATE_UTC: 2024-12-27 09:47:30
        _STATISTICS_TAGS: BPS DURATION NUMBER_OF_FRAMES NUMBER_OF_BYTES
  Stream #1:2(rus): Subtitle: ass (ssa) (default) (forced)
      Metadata:
        title           : Надписи
        BPS             : 11086
        DURATION        : 00:13:58.180000000
        NUMBER_OF_FRAMES: 2547
        NUMBER_OF_BYTES : 1161571
        _STATISTICS_WRITING_APP: mkvmerge v66.0.0 ('Josie') 64-bit
        _STATISTICS_WRITING_DATE_UTC: 2024-12-27 09:47:30
        _STATISTICS_TAGS: BPS DURATION NUMBER_OF_FRAMES NUMBER_OF_BYTES
  Stream #1:3(rus): Subtitle: ass (ssa)
      Metadata:
        title           : Субтитры
        BPS             : 6495
        DURATION        : 00:24:12.530000000
        NUMBER_OF_FRAMES: 2824
        NUMBER_OF_BYTES : 1179377
        _STATISTICS_WRITING_APP: mkvmerge v66.0.0 ('Josie') 64-bit
        _STATISTICS_WRITING_DATE_UTC: 2024-12-27 09:47:30
        _STATISTICS_TAGS: BPS DURATION NUMBER_OF_FRAMES NUMBER_OF_BYTES
  Stream #1:4: Attachment: ttf
      Metadata:
        filename        : simsun_0.ttc
        mimetype        : application/x-truetype-font
  Stream #1:5: Attachment: ttf
      Metadata:
        filename        : Snowstorm.ttf
        mimetype        : application/x-truetype-font
  Stream #1:6: Attachment: ttf
      Metadata:
        filename        : TEMPSITC.TTF
        mimetype        : application/x-truetype-font
  Stream #1:7: Attachment: otf
      Metadata:
        filename        : TrajanPro3-Bold.otf
        mimetype        : application/vnd.ms-opentype
  Stream #1:8: Attachment: otf
      Metadata:
        filename        : TrajanPro3-Regular.otf
        mimetype        : application/vnd.ms-opentype
  Stream #1:9: Attachment: ttf
      Metadata:
        filename        : v_HolyMackerelli_v1.9.ttf
        mimetype        : application/x-truetype-font
  Stream #1:10: Attachment: ttf
      Metadata:
        filename        : v_StraightJacketBB_v1.1.ttf
        mimetype        : application/x-truetype-font
  Stream #1:11: Attachment: ttf
      Metadata:
        filename        : XENI.TTF
        mimetype        : application/x-truetype-font
  Stream #1:12: Attachment: ttf
      Metadata:
        filename        : 10352__0.ttf
        mimetype        : application/x-truetype-font
  Stream #1:13: Attachment: ttf
      Metadata:
        filename        : Aero Matics Display Bold Italic.ttf
        mimetype        : application/x-truetype-font
  Stream #1:14: Attachment: ttf
      Metadata:
        filename        : Aero Matics Display Bold.ttf
        mimetype        : application/x-truetype-font
  Stream #1:15: Attachment: ttf
      Metadata:
        filename        : Aero Matics Display Italic.ttf
        mimetype        : application/x-truetype-font
  Stream #1:16: Attachment: ttf
      Metadata:
        filename        : Aero Matics Display Light Italic.ttf
        mimetype        : application/x-truetype-font
  Stream #1:17: Attachment: ttf
      Metadata:
        filename        : Aero Matics Display Light.ttf
        mimetype        : application/x-truetype-font
  Stream #1:18: Attachment: ttf
      Metadata:
        filename        : Aero_Matics_Display_Regular.ttf
        mimetype        : application/x-truetype-font
  Stream #1:19: Attachment: ttf
      Metadata:
        filename        : BenchNine-Regular.ttf
        mimetype        : application/x-truetype-font
  Stream #1:20: Attachment: ttf
      Metadata:
        filename        : OpenSanA.ttf
        mimetype        : application/x-truetype-font
  Stream #1:21: Attachment: ttf
      Metadata:
        filename        : REDOCTOB.otf
        mimetype        : application/x-truetype-font
Stream mapping:
  Stream #0:0 (hevc) -> settb:default
  Stream #1:0 (h264) -> settb:default
  psnr:default -> Stream #0:0 (wrapped_avframe)
  Stream #0:1 -> #0:1 (aac (native) -> pcm_s16le (native))
Output #0, null, to 'pipe:':
  Metadata:
    encoder         : Lavf61.7.100
  Stream #0:0: Video: wrapped_avframe, yuv420p10le(tv, bt709, progressive), 1280x720 [SAR 1:1 DAR 16:9], q=2-31, 200 kb/s, 23.98 fps, 23.98 tbn
      Metadata:
        encoder         : Lavc61.19.100 wrapped_avframe
  Stream #0:1(rus): Audio: pcm_s16le, 48000 Hz, stereo, s16, 1536 kb/s (default) (forced)
      Metadata:
        title           : Lupin, Silv, December & MyAska
        _STATISTICS_TAGS: BPS DURATION NUMBER_OF_FRAMES NUMBER_OF_BYTES
        BPS             : 193692
        DURATION        : 00:24:30.101000000
        NUMBER_OF_FRAMES: 68912
        NUMBER_OF_BYTES : 35593397
        _STATISTICS_WRITING_APP: mkvpropedit v66.0.0 ('Josie') 64-bit
        _STATISTICS_WRITING_DATE_UTC: 2025-06-26 14:56:57
        encoder         : Lavc61.19.100 pcm_s16le
frame=  451 fps=0.0 q=-0.0 size=N/A time=00:00:18.81 bitrate=N/A speed=36.4x    frame=  872 fps=845 q=-0.0 size=N/A time=00:00:36.36 bitrate=N/A speed=35.2x    frame= 1243 fps=803 q=-0.0 size=N/A time=00:00:51.84 bitrate=N/A speed=33.5x    frame= 1557 fps=756 q=-0.0 size=N/A time=00:01:04.93 bitrate=N/A speed=31.5x    frame= 1961 fps=761 q=-0.0 size=N/A time=00:01:21.79 bitrate=N/A speed=31.7x    frame= 2268 fps=732 q=-0.0 size=N/A time=00:01:34.59 bitrate=N/A speed=30.5x    frame= 2615 fps=726 q=-0.0 size=N/A time=00:01:49.06 bitrate=N/A speed=30.3x    frame= 2947 fps=715 q=-0.0 size=N/A time=00:02:02.91 bitrate=N/A speed=29.8x    frame= 3483 fps=751 q=-0.0 size=N/A time=00:02:25.27 bitrate=N/A speed=31.3x    frame= 3860 fps=749 q=-0.0 size=N/A time=00:02:40.99 bitrate=N/A speed=31.2x    frame= 4177 fps=736 q=-0.0 size=N/A time=00:02:54.21 bitrate=N/A speed=30.7x    frame= 4730 fps=765 q=-0.0 size=N/A time=00:03:17.28 bitrate=N/A speed=31.9x    frame= 5216 fps=778 q=-0.0 size=N/A time=00:03:37.55 bitrate=N/A speed=32.5x    frame= 5715 fps=792 q=-0.0 size=N/A time=00:03:58.36 bitrate=N/A speed=  33x    frame= 6244 fps=808 q=-0.0 size=N/A time=00:04:20.42 bitrate=N/A speed=33.7x    frame= 6749 fps=818 q=-0.0 size=N/A time=00:04:41.48 bitrate=N/A speed=34.1x    frame= 7230 fps=825 q=-0.0 size=N/A time=00:05:01.55 bitrate=N/A speed=34.4x    frame= 7599 fps=819 q=-0.0 size=N/A time=00:05:16.94 bitrate=N/A speed=34.1x    frame= 8018 fps=819 q=-0.0 size=N/A time=00:05:34.41 bitrate=N/A speed=34.2x    frame= 8599 fps=834 q=-0.0 size=N/A time=00:05:58.64 bitrate=N/A speed=34.8x    frame= 9143 fps=845 q=-0.0 size=N/A time=00:06:21.33 bitrate=N/A speed=35.2x    frame= 9589 fps=846 q=-0.0 size=N/A time=00:06:39.94 bitrate=N/A speed=35.3x    frame=10036 fps=846 q=-0.0 size=N/A time=00:06:58.58 bitrate=N/A speed=35.3x    frame=10524 fps=851 q=-0.0 size=N/A time=00:07:18.93 bitrate=N/A speed=35.5x    frame=11045 fps=857 q=-0.0 size=N/A time=00:07:40.66 bitrate=N/A speed=35.8x    frame=11558 fps=862 q=-0.0 size=N/A time=00:08:02.06 bitrate=N/A speed=  36x    frame=12032 fps=864 q=-0.0 size=N/A time=00:08:21.83 bitrate=N/A speed=36.1x    frame=12602 fps=873 q=-0.0 size=N/A time=00:08:45.60 bitrate=N/A speed=36.4x    frame=12954 fps=866 q=-0.0 size=N/A time=00:09:00.28 bitrate=N/A speed=36.1x    frame=13356 fps=863 q=-0.0 size=N/A time=00:09:17.05 bitrate=N/A speed=  36x    frame=13761 fps=861 q=-0.0 size=N/A time=00:09:33.94 bitrate=N/A speed=35.9x    frame=13952 fps=845 q=-0.0 size=N/A time=00:09:41.91 bitrate=N/A speed=35.3x    frame=14201 fps=834 q=-0.0 size=N/A time=00:09:52.30 bitrate=N/A speed=34.8x    frame=14473 fps=825 q=-0.0 size=N/A time=00:10:03.64 bitrate=N/A speed=34.4x    frame=14795 fps=820 q=-0.0 size=N/A time=00:10:17.07 bitrate=N/A speed=34.2x    frame=15268 fps=822 q=-0.0 size=N/A time=00:10:36.80 bitrate=N/A speed=34.3x    frame=15679 fps=822 q=-0.0 size=N/A time=00:10:53.94 bitrate=N/A speed=34.3x    frame=16193 fps=827 q=-0.0 size=N/A time=00:11:15.38 bitrate=N/A speed=34.5x    frame=16759 fps=833 q=-0.0 size=N/A time=00:11:38.98 bitrate=N/A speed=34.8x    frame=17316 fps=839 q=-0.0 size=N/A time=00:12:02.22 bitrate=N/A speed=  35x    frame=17938 fps=848 q=-0.0 size=N/A time=00:12:28.16 bitrate=N/A speed=35.4x    frame=18420 fps=851 q=-0.0 size=N/A time=00:12:48.26 bitrate=N/A speed=35.5x    frame=18950 fps=855 q=-0.0 size=N/A time=00:13:10.37 bitrate=N/A speed=35.6x    frame=19539 fps=861 q=-0.0 size=N/A time=00:13:34.93 bitrate=N/A speed=35.9x    frame=20072 fps=865 q=-0.0 size=N/A time=00:13:57.16 bitrate=N/A speed=36.1x    frame=20489 fps=864 q=-0.0 size=N/A time=00:14:14.56 bitrate=N/A speed=  36x    frame=20778 fps=857 q=-0.0 size=N/A time=00:14:26.61 bitrate=N/A speed=35.8x    frame=21302 fps=861 q=-0.0 size=N/A time=00:14:48.47 bitrate=N/A speed=35.9x    frame=21734 fps=861 q=-0.0 size=N/A time=00:15:06.48 bitrate=N/A speed=35.9x    frame=22154 fps=859 q=-0.0 size=N/A time=00:15:24.00 bitrate=N/A speed=35.8x    frame=22502 fps=856 q=-0.0 size=N/A time=00:15:38.52 bitrate=N/A speed=35.7x    frame=22932 fps=855 q=-0.0 size=N/A time=00:15:56.45 bitrate=N/A speed=35.7x    frame=23372 fps=855 q=-0.0 size=N/A time=00:16:14.80 bitrate=N/A speed=35.7x    frame=23864 fps=857 q=-0.0 size=N/A time=00:16:35.32 bitrate=N/A speed=35.7x    frame=24362 fps=859 q=-0.0 size=N/A time=00:16:56.14 bitrate=N/A speed=35.8x    frame=24901 fps=863 q=-0.0 size=N/A time=00:17:18.57 bitrate=N/A speed=  36x    frame=25442 fps=866 q=-0.0 size=N/A time=00:17:41.14 bitrate=N/A speed=36.1x    frame=25930 fps=867 q=-0.0 size=N/A time=00:18:01.49 bitrate=N/A speed=36.2x    frame=26511 fps=872 q=-0.0 size=N/A time=00:18:25.72 bitrate=N/A speed=36.4x    frame=27131 fps=877 q=-0.0 size=N/A time=00:18:51.58 bitrate=N/A speed=36.6x    frame=27709 fps=881 q=-0.0 size=N/A time=00:19:15.69 bitrate=N/A speed=36.8x    frame=28249 fps=884 q=-0.0 size=N/A time=00:19:38.21 bitrate=N/A speed=36.9x    frame=28733 fps=885 q=-0.0 size=N/A time=00:19:58.40 bitrate=N/A speed=36.9x    frame=29192 fps=885 q=-0.0 size=N/A time=00:20:17.54 bitrate=N/A speed=36.9x    frame=29643 fps=885 q=-0.0 size=N/A time=00:20:36.36 bitrate=N/A speed=36.9x    frame=30081 fps=884 q=-0.0 size=N/A time=00:20:54.62 bitrate=N/A speed=36.9x    frame=30537 fps=884 q=-0.0 size=N/A time=00:21:13.64 bitrate=N/A speed=36.9x    frame=31042 fps=885 q=-0.0 size=N/A time=00:21:34.71 bitrate=N/A speed=36.9x    frame=31618 fps=889 q=-0.0 size=N/A time=00:21:58.73 bitrate=N/A speed=37.1x    frame=32158 fps=891 q=-0.0 size=N/A time=00:22:21.25 bitrate=N/A speed=37.2x    frame=32669 fps=892 q=-0.0 size=N/A time=00:22:42.56 bitrate=N/A speed=37.2x    frame=33231 fps=895 q=-0.0 size=N/A time=00:23:06.00 bitrate=N/A speed=37.3x    frame=33788 fps=898 q=-0.0 size=N/A time=00:23:29.24 bitrate=N/A speed=37.4x    frame=34276 fps=898 q=-0.0 size=N/A time=00:23:49.59 bitrate=N/A speed=37.5x    frame=34817 fps=900 q=-0.0 size=N/A time=00:24:12.15 bitrate=N/A speed=37.5x    [Parsed_psnr_10 @ 0000026cb1f29e40] PSNR y:47.468223 u:50.964890 v:50.732045 average:48.331255 min:37.523947 max:56.424485
[out#0/null @ 0000026caf6a3f40] video:15144KiB audio:275648KiB subtitle:0KiB other streams:0KiB global headers:0KiB muxing overhead: unknown
frame=35245 fps=901 q=-0.0 Lsize=N/A time=00:24:30.01 bitrate=N/A speed=37.6x    
